<?xml version="1.0" standalone="no"?><!DOCTYPE svg PUBLIC "-//W3C//DTD SVG 1.1//EN" "http://www.w3.org/Graphics/SVG/1.1/DTD/svg11.dtd"><svg t="1609335191577" class="icon" viewBox="0 0 1030 1024" version="1.1" xmlns="http://www.w3.org/2000/svg" p-id="7295" xmlns:xlink="http://www.w3.org/1999/xlink" width="201.171875" height="200"><defs><style type="text/css"></style></defs><path d="M697.344 780.8H331.264c-14.336 0-25.6-11.264-25.6-25.6V406.528c0-14.336 11.264-25.6 25.6-25.6h366.08c14.336 0 25.6 11.264 25.6 25.6v348.672c0 14.336-11.264 25.6-25.6 25.6z m-340.48-51.2h314.88V432.128H356.864v297.472z" p-id="7296"></path><path d="M799.232 673.28c-14.336 0-25.6-11.264-25.6-25.6v-322.56H433.152c-14.336 0-25.6-11.264-25.6-25.6s11.264-25.6 25.6-25.6h366.08c14.336 0 25.6 11.264 25.6 25.6v348.16c0 14.336-11.264 25.6-25.6 25.6z" p-id="7297"></path><path d="M977.92 988.16H97.28c-14.336 0-25.6-11.264-25.6-25.6v-174.08c0-14.336 11.264-25.6 25.6-25.6s25.6 11.264 25.6 25.6v148.48h829.44V112.64H122.88v148.48c0 14.336-11.264 25.6-25.6 25.6s-25.6-11.264-25.6-25.6V87.04c0-14.336 11.264-25.6 25.6-25.6h880.64c14.336 0 25.6 11.264 25.6 25.6v875.52c0 14.336-11.264 25.6-25.6 25.6z" p-id="7298"></path><path d="M138.752 403.968H48.128c-14.336 0-25.6-11.264-25.6-25.6s11.264-25.6 25.6-25.6h90.624c14.336 0 25.6 11.264 25.6 25.6s-11.264 25.6-25.6 25.6zM138.752 544.768H48.128c-14.336 0-25.6-11.264-25.6-25.6s11.264-25.6 25.6-25.6h90.624c14.336 0 25.6 11.264 25.6 25.6s-11.264 25.6-25.6 25.6zM138.752 691.2H48.128c-14.336 0-25.6-11.264-25.6-25.6s11.264-25.6 25.6-25.6h90.624c14.336 0 25.6 11.264 25.6 25.6s-11.264 25.6-25.6 25.6z" p-id="7299"></path></svg>