<?xml version="1.0" standalone="no"?><!DOCTYPE svg PUBLIC "-//W3C//DTD SVG 1.1//EN" "http://www.w3.org/Graphics/SVG/1.1/DTD/svg11.dtd"><svg t="1609335313813" class="icon" viewBox="0 0 1024 1024" version="1.1" xmlns="http://www.w3.org/2000/svg" p-id="10094" xmlns:xlink="http://www.w3.org/1999/xlink" width="200" height="200"><defs><style type="text/css"></style></defs><path d="M553.94304 463.616L484.7104 427.79648l-366.98624 216.13056 402.00704 284.6208 385.536-283.21792-139.64288-72.23296a257.5104 257.5104 0 0 1-74.78272 77.63456l-161.03424 108.61568a19.82976 19.82976 0 0 1-21.41184 0.49152L340.8896 657.67936c-12.47232-7.6032-12.71296-25.61536-0.45056-33.54624l149.36576-96.64a217.86624 217.86624 0 0 0 64.13824-63.88224z m114.72384 154.2656a217.88672 217.88672 0 0 0 71.56224-80.25088 19.82976 19.82976 0 0 1 26.70592-8.46848l184.9088 95.6416c13.056 6.7584 14.47424 24.86272 2.63168 33.56672l-422.78912 310.5792a19.82976 19.82976 0 0 1-23.19872 0.2048l-438.6816-310.5792c-11.73504-8.30976-10.99264-25.94816 1.39776-33.24416L474.02496 388.096a19.83488 19.83488 0 0 1 19.17952-0.52224l97.536 50.44736a19.8144 19.8144 0 0 1 8.41728 26.85952 257.52064 257.52064 0 0 1-87.808 95.88224L388.4544 640.27136l129.72032 79.11424L668.672 617.8816z m0 0a217.94304 217.94304 0 0 0 96.09216-180.6848V307.29728c0-13.1584 12.58496-22.66112 25.2416-19.06176l27.74528 7.8848-114.59072-191.91808-114.59584 126.78144 26.0608 7.40864a19.8144 19.8144 0 0 1 14.40256 19.05664v87.0656a257.57184 257.57184 0 0 1-117.67296 216.25344L388.4544 640.27136l129.72032 79.11424L668.672 617.8816z m135.74144-180.6848a257.57184 257.57184 0 0 1-113.5616 213.53984l-161.03936 108.61568a19.82976 19.82976 0 0 1-21.41184 0.49152L340.8896 657.67936c-12.47232-7.6032-12.71296-25.61536-0.45056-33.54624l149.36576-96.64a217.94816 217.94816 0 0 0 99.56864-182.98368V272.41472l-42.30656-12.02688c-14.12608-4.01408-19.13344-21.4528-9.28768-32.34304L691.712 57.73312c8.93952-9.89184 24.89856-8.31488 31.73376 3.12832l153.93792 257.81248c9.19552 15.40608-5.18144 34.11968-22.44608 29.21472l-50.5344-14.3616V437.1968z" p-id="10095"></path></svg>