<?xml version="1.0" standalone="no"?><!DOCTYPE svg PUBLIC "-//W3C//DTD SVG 1.1//EN" "http://www.w3.org/Graphics/SVG/1.1/DTD/svg11.dtd"><svg t="1609335277050" class="icon" viewBox="0 0 2049 1024" version="1.1" xmlns="http://www.w3.org/2000/svg" p-id="9595" xmlns:xlink="http://www.w3.org/1999/xlink" width="400.1953125" height="200"><defs><style type="text/css"></style></defs><path d="M1477.273 80.077c0-12.647-12.646-22.764-22.763-22.764L1029.581 26.96 543.947 512.594c-7.588 7.588-7.588 22.764 0 30.353l447.694 447.692c7.587 7.589 22.763 7.589 30.352 0l485.632-485.633-30.352-424.929z m-455.28 859.371c-7.589 7.589-22.765 7.589-30.352 0L598.874 539.455c-7.589-7.588-10.118-22.764 0-30.352L1047.65 60.327l374.698 24.451c12.646 0 22.765 12.648 25.294 25.295l30.473 380.72-446.897 440.62c-0.53 0.54-1.084 1.057-1.658 1.55l-7.567 6.485z" p-id="9596"></path><path d="M1279.985 252.073c-35.41-35.412-91.056-35.412-126.466-2.53-35.41 35.41-32.882 91.057 2.528 126.467 35.411 35.41 91.057 35.41 126.468 2.529 35.41-32.88 32.88-91.056-2.53-126.466z m-22.548 102.714c-22.074 22.076-56.766 22.076-78.842 0-22.074-22.075-22.074-56.766 0-78.842 22.076-22.075 56.768-22.075 78.842 0 22.076 22.076 22.076 57.972 0 80.046v-1.204z m-400.441 288.9l46.779-46.779-59.733-59.732 20.007-20.007 59.733 59.732 20.583-20.58-59.734-59.734 21.302-21.302 49.081 49.082 43.901-160.775 28.788 28.786-32.53 116.012c-3.743 13.146-7.484 24.182-11.227 33.105 7.291-2.88 19.045-6.765 35.265-11.66l112.413-33.537 30.802 30.802-160.632 44.044 49.081 49.083-21.301 21.3-59.3-59.3-20.584 20.582 59.301 59.302-20.007 20.007-59.3-59.302-46.78 46.779-25.908-25.908z" p-id="9597"></path></svg>