<?xml version="1.0" standalone="no"?><!DOCTYPE svg PUBLIC "-//W3C//DTD SVG 1.1//EN" "http://www.w3.org/Graphics/SVG/1.1/DTD/svg11.dtd"><svg t="1609335283437" class="icon" viewBox="0 0 1024 1024" version="1.1" xmlns="http://www.w3.org/2000/svg" p-id="9733" xmlns:xlink="http://www.w3.org/1999/xlink" width="200" height="200"><defs><style type="text/css"></style></defs><path d="M912.0768 899.9936c0-14.0288-9.0112-25.4976-20.5824-25.4976H113.3568c-11.3664 0-20.48 11.4688-20.48 25.4976 0 14.4384 9.1136 25.7024 20.48 25.7024h778.1376c11.5712 0 20.5824-11.264 20.5824-25.7024z" fill="#4D5573" p-id="9734"></path><path d="M894.3616 890.88c8.8064-4.5056 13.5168-12.1856 10.752-17.2032l-109.8752-201.728c-3.072-4.9152-12.288-5.5296-20.8896-1.1264-8.704 4.608-13.5168 12.1856-10.6496 17.408L873.7792 889.856c2.8672 4.9152 11.776 5.5296 20.5824 1.024z" fill="#4D5573" p-id="9735"></path><path d="M649.1136 705.2288a317.8496 317.8496 0 0 1-317.5424-317.5424c0-175.104 142.4384-317.5424 317.5424-317.5424S966.656 212.5824 966.656 387.6864a317.952 317.952 0 0 1-317.5424 317.5424z m0-583.8848c-146.8416 0-266.3424 119.5008-266.3424 266.3424s119.5008 266.3424 266.3424 266.3424S915.456 534.528 915.456 387.6864 795.8528 121.344 649.1136 121.344z" fill="#4D5573" p-id="9736"></path><path d="M681.984 233.0624a13.9264 13.9264 0 0 0-10.5472-15.6672 13.312 13.312 0 0 0-9.0112 1.6384 12.8 12.8 0 0 0-6.656 8.9088l-39.3216 98.9184-99.7376-19.8656a11.776 11.776 0 0 0-11.1616 1.024 12.9024 12.9024 0 0 0-5.9392 6.7584 13.7216 13.7216 0 0 0 7.68 17.2032l108.8512 23.1424 9.0112 16.0768-84.992 47.7184a13.6192 13.6192 0 0 0-4.9152 18.432 13.2096 13.2096 0 0 0 18.1248 4.7104l84.8896-47.5136 33.3824 59.1872-84.992 47.616a13.5168 13.5168 0 0 0-5.2224 18.2272 13.4144 13.4144 0 0 0 18.2272 5.0176l84.7872-47.5136 41.7792 74.3424a13.5168 13.5168 0 0 0 18.2272 5.12 13.312 13.312 0 0 0 4.9152-18.2272l-41.6768-74.24 84.8896-47.9232a12.9024 12.9024 0 0 0 5.3248-17.8176 13.312 13.312 0 0 0-18.2272-5.12l-84.8896 47.5136-33.28-59.0848 85.0944-47.7184a13.312 13.312 0 0 0-13.1072-23.2448l-84.992 47.5136-8.192-14.9504 41.6768-110.1824zM502.4768 686.3872c0 14.1312-9.216 25.6-20.48 25.6H113.4592c-11.3664 0-20.5824-11.4688-20.5824-25.6s9.1136-25.6 20.5824-25.6h368.5376c11.264 0 20.48 11.4688 20.48 25.6zM348.8768 460.8c0 14.1312-9.5232 25.6-21.2992 25.6H114.176C102.4 486.4 92.8768 474.9312 92.8768 460.8s9.5232-25.6 21.2992-25.6h213.4016c11.776 0 21.2992 11.4688 21.2992 25.6z" fill="#4D5573" p-id="9737"></path></svg>