<?xml version="1.0" standalone="no"?><!DOCTYPE svg PUBLIC "-//W3C//DTD SVG 1.1//EN" "http://www.w3.org/Graphics/SVG/1.1/DTD/svg11.dtd"><svg t="1605365663980" class="icon" viewBox="0 0 1024 1024" version="1.1" xmlns="http://www.w3.org/2000/svg" p-id="1231" xmlns:xlink="http://www.w3.org/1999/xlink" width="200" height="200"><defs><style type="text/css"></style></defs><path d="M899.2 664H388.8c-24.832 0-44.8-21.632-44.8-48s20.032-48 44.8-48h510.4c24.768 0 44.8 21.632 44.8 48s-20.032 48-44.8 48z m0-224H388.8c-24.832 0-44.8-21.632-44.8-48s20.032-48 44.8-48h510.4c24.768 0 44.8 21.632 44.8 48s-20.032 48-44.8 48zM896 224H112A48.128 48.128 0 0 1 64 176c0-26.432 21.568-48 48-48H896c26.368 0 48 21.568 48 48s-21.632 48-48 48z m-608 440L64 504l224-160v320zM112 784H896c26.368 0 48 21.632 48 48s-21.632 48-48 48H112A48.128 48.128 0 0 1 64 832c0-26.368 21.568-48 48-48z" p-id="1232"></path></svg>
