<?xml version="1.0" standalone="no"?><!DOCTYPE svg PUBLIC "-//W3C//DTD SVG 1.1//EN" "http://www.w3.org/Graphics/SVG/1.1/DTD/svg11.dtd"><svg t="1609334829436" class="icon" viewBox="0 0 1024 1024" version="1.1" xmlns="http://www.w3.org/2000/svg" p-id="2546" xmlns:xlink="http://www.w3.org/1999/xlink" width="200" height="200"><defs><style type="text/css"></style></defs><path d="M716.7 510.2H308.8c-22.1 0-40 17.9-40 40s17.9 40 40 40h407.9c22.1 0 40-17.9 40-40s-17.9-40-40-40zM716.7 700.7H308.8c-22.1 0-40 17.9-40 40s17.9 40 40 40h407.9c22.1 0 40-17.9 40-40s-17.9-40-40-40zM255.1 371.4c7.7 23.2 29.3 38.8 53.7 38.8h0.3l397.7-1.8c23.9-0.1 45.5-14.3 55-36.2 9.5-21.9 5.2-47.5-11.1-65-20.1-21.8-44.6-38.3-66.2-52.8-7.1-4.8-13.8-9.3-20-13.7-23-16.5-38.9-40.5-44.8-67.4-0.7-3.3-1.3-6.8-2-10.5-2.8-16.1-6.4-36-21.7-56.1-20.3-26.4-50.9-42.2-82-42.2h-2c-57.6 0-100.2 43.8-106 108.9-3.2 36.1-17.9 63.5-43.6 81.3-7.6 5.3-19 11.7-31.1 18.6-17.9 10.2-38.3 21.8-55.9 34.7-19.9 14.6-28.1 40.1-20.3 63.4z m152.7-51c45.5-31.5 72.4-79.9 77.7-140 1.2-13.4 6.2-36 26.4-36h2c6.2 0 13.4 4.3 18.5 10.9 3.2 4.1 4.3 9.1 6.4 21.3 0.7 4.1 1.5 8.7 2.6 13.5 10.1 46.3 37.2 87.3 76.3 115.4 7.2 5.2 14.7 10.2 22 15.1 3.9 2.6 7.9 5.3 11.8 8l-258.3 1.2c5.2-3.1 10.1-6.3 14.6-9.4z" p-id="2547"></path><path d="M874.4 166.3h-79.1c-22.1 0-40 17.9-40 40s17.9 40 40 40h79.1c0.3 0 0.5 0.2 0.5 0.5V879c0 0.3-0.2 0.5-0.5 0.5H149.6c-0.3 0-0.5-0.2-0.5-0.5V246.9c0-0.3 0.2-0.5 0.5-0.5h80.1c22.1 0 40-17.9 40-40s-17.9-40-40-40h-80.1c-44.4 0-80.5 36.1-80.5 80.5V879c0 44.4 36.1 80.5 80.5 80.5h724.8c44.4 0 80.5-36.1 80.5-80.5V246.9c0-44.4-36.1-80.6-80.5-80.6z" p-id="2548"></path></svg>