<?xml version="1.0" standalone="no"?><!DOCTYPE svg PUBLIC "-//W3C//DTD SVG 1.1//EN" "http://www.w3.org/Graphics/SVG/1.1/DTD/svg11.dtd"><svg t="1608445158231" class="icon" viewBox="0 0 1024 1024" version="1.1" xmlns="http://www.w3.org/2000/svg" p-id="2911" xmlns:xlink="http://www.w3.org/1999/xlink" width="200" height="200"><defs><style type="text/css"></style></defs><path d="M0 0h1024v1024H0z" fill="#D8D8D8" fill-opacity="0" p-id="2912"></path><path d="M758.510933 487.082667c-96.597333-43.008-209.578667-6.519467-264.021333 85.248-54.459733 91.767467-33.467733 210.346667 49.0496 277.077333-11.707733 5.256533-25.344 3.413333-35.2768-4.778667l-47.872-38.741333-42.871467 38.741333a32.768 32.768 0 0 1-22.084266 8.277334 32.5632 32.5632 0 0 1-21.879467-8.192l-42.786133-38.741334-43.281067 39.082667a33.024 33.024 0 0 1-22.050133 8.277333 32.443733 32.443733 0 0 1-21.9136-8.192l-50.2272-45.397333a24.285867 24.285867 0 0 1-4.113067-4.693333A45.1072 45.1072 0 0 1 170.666667 759.159467V204.919467C170.666667 186.026667 185.787733 170.666667 203.963733 170.666667h521.250134c18.397867 0 33.297067 15.223467 33.297066 34.2528V487.082667z m-520.6528-30.088534c0 9.0112 7.338667 16.810667 16.366934 16.810667h151.995733c9.3696 0 16.384-7.509333 16.384-16.810667a16.810667 16.810667 0 0 0-16.384-16.8448h-151.995733a16.162133 16.162133 0 0 0-11.6736 4.9152 16.6912 16.6912 0 0 0-4.693334 11.946667z m0 134.7072c0 9.045333 7.2192 16.8448 16.162134 16.8448h118.818133a16.247467 16.247467 0 0 0 11.52-5.0176 16.776533 16.776533 0 0 0 4.6592-11.8272 16.6912 16.6912 0 0 0-16.1792-16.810666h-118.818133a16.520533 16.520533 0 0 0-16.162134 16.810666z m0-286.293333c0 9.045333 7.389867 16.8448 16.5376 16.8448h218.845867c9.233067 0 16.554667-7.543467 16.554667-16.8448a16.8448 16.8448 0 0 0-16.554667-16.861867H254.395733a16.3328 16.3328 0 0 0-11.741866 4.9152 16.861867 16.861867 0 0 0-4.795734 11.946667z" fill="#4B92E3" p-id="2913"></path><path d="M682.666667 853.333333c-94.2592 0-170.666667-76.407467-170.666667-170.666666s76.407467-170.666667 170.666667-170.666667 170.666667 76.407467 170.666666 170.666667-76.407467 170.666667-170.666666 170.666666z m80.520533-172.970666a14.165333 14.165333 0 1 0 0-28.245334h-36.795733l36.693333-36.608a14.08 14.08 0 0 0 0-20.053333 14.301867 14.301867 0 0 0-20.053333 0l-52.1728 51.968-52.138667-51.933867a14.2848 14.2848 0 0 0-24.337067 10.0352c0 3.754667 1.518933 7.3728 4.1984 10.018134L655.36 652.117333h-34.389333a14.165333 14.165333 0 0 0 0 28.279467h56.8832v28.296533h-56.9344a14.165333 14.165333 0 0 0 0 28.330667h56.917333v32.9728a14.2336 14.2336 0 0 0 28.4672 0v-32.9728h56.866133a14.165333 14.165333 0 0 0 0-28.330667h-56.866133v-28.330666h56.8832z" fill="#4B92E3" p-id="2914"></path></svg>