<?xml version="1.0" standalone="no"?><!DOCTYPE svg PUBLIC "-//W3C//DTD SVG 1.1//EN" "http://www.w3.org/Graphics/SVG/1.1/DTD/svg11.dtd"><svg t="1608445414895" class="icon" viewBox="0 0 1024 1024" version="1.1" xmlns="http://www.w3.org/2000/svg" p-id="3508" xmlns:xlink="http://www.w3.org/1999/xlink" width="200" height="200"><defs><style type="text/css"></style></defs><path d="M946.0736 488.6784V209.7664c0-20.8128-16.3072-37.8112-36.352-37.8112H36.4032C16.4096 171.9296 0 188.928 0 209.7664v604.4928c0 20.8128 16.4096 37.8112 36.4032 37.8112h392.0384l363.392-363.392h154.24z" fill="#62D1A9" p-id="3509"></path><path d="M791.8336 488.6784L428.4416 852.0704h481.28c20.0448 0 36.352-17.024 36.352-37.8112V488.6784h-154.24z" fill="#59BA98" p-id="3510"></path><path d="M477.9776 617.8304c5.376 7.808 13.696 12.7488 22.8096 13.5424 9.1392 0.7936 18.1248-2.6368 24.6528-9.4464l156.928-163.7376c4.4288 12.3904 15.744 21.248 29.184 21.248 17.2544 0 31.1808-14.592 31.1808-32.5888v-64.9216-0.128-0.1536c0-5.9136-1.6384-11.392-4.2752-16.1792-0.3072-0.64-0.5888-1.3056-0.9984-1.8944-0.7936-1.2544-1.7664-2.3552-2.7136-3.456-0.3584-0.4864-0.7168-0.9984-1.1264-1.4336-0.4096-0.4352-0.896-0.7424-1.3312-1.1264l-0.0256-0.0256a30.6176 30.6176 0 0 0-8.7552-5.888c-1.2288-0.5376-2.5088-0.8704-3.7888-1.2288a0.2048 0.2048 0 0 1-0.128-0.0512c-0.64-0.1792-1.2032-0.4352-1.8432-0.5632h-0.0256c-0.6144-0.128-1.2544-0.1024-1.8944-0.2048-1.408-0.2048-2.7904-0.4608-4.2496-0.4608h-62.464c-17.2544 0-31.2832 14.592-31.2832 32.5632 0 14.0288 8.4992 25.8816 20.3776 30.4896l-130.8928 136.5504-82.6368-120.7808a31.232 31.232 0 0 0-22.8352-13.5424 30.464 30.464 0 0 0-24.6528 9.4464l-187.4176 195.5072a33.6896 33.6896 0 0 0 0 46.1056c6.1184 6.3744 14.1568 9.5488 22.1184 9.5488 8.0128 0 15.9488-3.2 22.0928-9.5488l161.28-168.32 82.7136 120.6784z" fill="#C7FFEF" p-id="3511"></path><path d="M791.8336 791.5264a116.0704 60.544 0 1 0 232.1408 0 116.0704 60.544 0 1 0-232.1408 0Z" fill="#C18B10" p-id="3512"></path><path d="M791.8336 767.2832H1024v24.2432h-232.1664z" fill="#C18B10" p-id="3513"></path><path d="M791.8336 767.2832a116.0704 60.5696 0 1 0 232.1408 0 116.0704 60.5696 0 1 0-232.1408 0Z" fill="#F9C82D" p-id="3514"></path><path d="M815.0016 767.2832a92.9024 48.4608 0 1 0 185.8048 0 92.9024 48.4608 0 1 0-185.8048 0Z" fill="#E8B321" p-id="3515"></path><path d="M884.6848 682.5216c-64.128 0-116.0448 27.0848-116.0448 60.5696 0 33.4336 51.9168 60.5696 116.0448 60.5696 64.1792 0 116.096-27.136 116.096-60.5696-0.0256-33.4848-51.9168-60.5696-116.096-60.5696z" fill="#C18B10" p-id="3516"></path><path d="M768.64 718.848h232.1408v24.2432h-232.1408z" fill="#C18B10" p-id="3517"></path><path d="M884.6848 658.2528c-64.128 0-116.0448 27.1616-116.0448 60.5696 0 33.4336 51.9168 60.5696 116.0448 60.5696 64.1792 0 116.096-27.136 116.096-60.5696-0.0256-33.408-51.9168-60.5696-116.096-60.5696z" fill="#F9C82D" p-id="3518"></path><path d="M791.8336 718.848a92.8512 48.4352 0 1 0 185.7024 0 92.8512 48.4352 0 1 0-185.7024 0Z" fill="#E8B321" p-id="3519"></path><path d="M791.8336 694.6048a116.0704 60.544 0 1 0 232.1408 0 116.0704 60.544 0 1 0-232.1408 0Z" fill="#C18B10" p-id="3520"></path><path d="M791.8336 670.4128H1024v24.2176h-232.1664z" fill="#C18B10" p-id="3521"></path><path d="M791.8336 670.4128a116.0704 60.5696 0 1 0 232.1408 0 116.0704 60.5696 0 1 0-232.1408 0Z" fill="#F9C82D" p-id="3522"></path><path d="M815.0016 670.3872a92.9024 48.4608 0 1 0 185.8048 0 92.9024 48.4608 0 1 0-185.8048 0Z" fill="#E8B321" p-id="3523"></path><path d="M884.6848 585.6c-64.128 0-116.0448 27.0848-116.0448 60.5696 0 33.4336 51.9168 60.5696 116.0448 60.5696 64.1792 0 116.096-27.136 116.096-60.5696-0.0256-33.4848-51.9168-60.5696-116.096-60.5696z" fill="#C18B10" p-id="3524"></path><path d="M768.64 621.9264h232.1408v24.2432h-232.1408z" fill="#C18B10" p-id="3525"></path><path d="M884.6848 561.3568c-64.128 0-116.0448 27.1616-116.0448 60.5696 0 33.4848 51.9168 60.5952 116.0448 60.5952 64.1792 0 116.096-27.136 116.096-60.5952-0.0256-33.4336-51.9168-60.5696-116.096-60.5696z" fill="#F9C82D" p-id="3526"></path><path d="M791.8336 621.952a92.8512 48.4608 0 1 0 185.7024 0 92.8512 48.4608 0 1 0-185.7024 0Z" fill="#E8B321" p-id="3527"></path><path d="M791.8336 597.7088a116.0704 60.544 0 1 0 232.1408 0 116.0704 60.544 0 1 0-232.1408 0Z" fill="#C18B10" p-id="3528"></path><path d="M791.8336 573.4912H1024v24.2432h-232.1664z" fill="#C18B10" p-id="3529"></path><path d="M791.8336 573.4912a116.0704 60.5696 0 1 0 232.1408 0 116.0704 60.5696 0 1 0-232.1408 0Z" fill="#F9C82D" p-id="3530"></path><path d="M815.0016 573.4656a92.9024 48.4352 0 1 0 185.8048 0 92.9024 48.4352 0 1 0-185.8048 0Z" fill="#E8B321" p-id="3531"></path><path d="M884.6848 488.6784c-64.128 0-116.0448 27.136-116.0448 60.5696 0 33.4848 51.9168 60.5952 116.0448 60.5952 64.1792 0 116.096-27.1104 116.096-60.5952-0.0256-33.4592-51.9168-60.5696-116.096-60.5696z" fill="#C18B10" p-id="3532"></path><path d="M768.64 525.0304h232.1408v24.2176h-232.1408z" fill="#C18B10" p-id="3533"></path><path d="M775.808 504.6784l15.1296-15.1296c-6.4 4.608-11.3664 9.7024-15.1296 15.1296zM884.6848 464.4096c-37.8624 0-71.1424 9.6256-92.3136 24.2432h184.6784c-21.1968-14.6176-54.4768-24.2432-92.3648-24.2432zM977.0496 488.6784h-184.6784l-1.408 0.896-15.1296 15.1296c-4.3776 6.3744-7.1936 13.1584-7.1936 20.3264 0 33.4336 51.9168 60.5696 116.0448 60.5696 64.1792 0 116.096-27.1104 116.096-60.5696-0.0256-13.696-9.0368-26.1888-23.7312-36.352z" fill="#F9C82D" p-id="3534"></path><path d="M884.6848 476.5696c-23.3728 0-44.4672 4.6592-60.8 12.1088h121.5744c-16.3072-7.4496-37.4016-12.1088-60.7744-12.1088zM945.4592 488.6784h-121.5744c-19.4816 8.8832-32.0512 21.8112-32.0512 36.352 0 26.752 41.5488 48.4608 92.8512 48.4608 51.2768 0 92.8512-21.7088 92.8512-48.4608 0-14.5664-12.5696-27.4688-32.0768-36.352z" fill="#E8B321" p-id="3535"></path></svg>