<?xml version="1.0" standalone="no"?><!DOCTYPE svg PUBLIC "-//W3C//DTD SVG 1.1//EN" "http://www.w3.org/Graphics/SVG/1.1/DTD/svg11.dtd"><svg t="1608445315255" class="icon" viewBox="0 0 1024 1024" version="1.1" xmlns="http://www.w3.org/2000/svg" p-id="3368" xmlns:xlink="http://www.w3.org/1999/xlink" width="200" height="200"><defs><style type="text/css"></style></defs><path d="M421.934545 275.083636a27.461818 27.461818 0 0 0 23.272728 12.334546h150.574545a27.694545 27.694545 0 0 0 21.876364-10.705455l63.534545-84.48a27.229091 27.229091 0 0 0 4.887273-23.272727 26.530909 26.530909 0 0 0-15.127273-18.152727A359.330909 359.330909 0 0 0 518.283636 116.363636a306.269091 306.269091 0 0 0-144.058181 33.512728 27.229091 27.229091 0 0 0-9.309091 38.632727z m193.861819-87.272727L581.818182 232.727273h-122.181818l-30.952728-46.545455a320.465455 320.465455 0 0 1 187.112728 1.629091z m19.549091 81.221818l-5.585455-2.792727h-217.134545l-5.585455 2.792727c-14.196364 7.214545-349.090909 179.432727-281.6 445.905455 0 8.610909 28.625455 203.869091 381.672727 205.730909h23.272728c357.934545 0 385.861818-197.352727 386.094545-202.472727 68.189091-269.730909-266.705455-441.949091-281.134545-449.163637z" fill="#3F58FD" p-id="3369"></path><path d="M714.24 533.178182l-84.48-85.178182a18.618182 18.618182 0 0 0-26.298182 0 18.850909 18.850909 0 0 0 0 26.530909l54.923637 55.389091H343.738182a18.618182 18.618182 0 0 0 0 37.236364h359.796363a18.385455 18.385455 0 0 0 17.92-18.618182 18.850909 18.850909 0 0 0-7.214545-14.894546z m-10.705455 89.134545H343.738182a18.385455 18.385455 0 0 0-17.92 18.618182 19.781818 19.781818 0 0 0 6.283636 14.196364l83.781818 84.247272a18.385455 18.385455 0 0 0 26.065455 0 18.850909 18.850909 0 0 0 0-26.530909l-52.829091-53.294545h314.414545a18.850909 18.850909 0 0 0 0-37.469091z" fill="#FFFFFF" p-id="3370"></path></svg>