<?xml version="1.0" standalone="no"?><!DOCTYPE svg PUBLIC "-//W3C//DTD SVG 1.1//EN" "http://www.w3.org/Graphics/SVG/1.1/DTD/svg11.dtd"><svg t="1609335259625" class="icon" viewBox="0 0 1024 1024" version="1.1" xmlns="http://www.w3.org/2000/svg" p-id="8820" xmlns:xlink="http://www.w3.org/1999/xlink" width="200" height="200"><defs><style type="text/css"></style></defs><path d="M307.2 597.333333h392.533333c5.12 0 8.533333-3.413333 8.533334-8.533333v-17.066667c0-5.12-3.413333-8.533333-8.533334-8.533333H307.2c-5.12 0-8.533333 3.413333-8.533333 8.533333v17.066667c0 5.12 3.413333 8.533333 8.533333 8.533333z m256 68.266667H307.2c-5.12 0-8.533333 3.413333-8.533333 8.533333v17.066667c0 5.12 3.413333 8.533333 8.533333 8.533333h256c5.12 0 8.533333-3.413333 8.533333-8.533333v-17.066667c0-5.12-5.12-8.533333-8.533333-8.533333z m136.533333-204.8H307.2c-5.12 0-8.533333 3.413333-8.533333 8.533333v17.066667c0 5.12 3.413333 8.533333 8.533333 8.533333h392.533333c5.12 0 8.533333-3.413333 8.533334-8.533333v-17.066667c0-5.12-5.12-8.533333-8.533334-8.533333z m76.8-256h-71.68c-11.946667-39.253333-47.786667-68.266667-90.453333-68.266667h-13.653333c-13.653333-39.253333-51.2-68.266667-97.28-68.266666-44.373333 0-81.92 29.013333-97.28 68.266666H392.533333c-42.666667 0-78.506667 29.013333-90.453333 68.266667h-71.68c-37.546667 0-68.266667 30.72-68.266667 68.266667v580.266666c0 37.546667 30.72 68.266667 68.266667 68.266667h546.133333c37.546667 0 68.266667-30.72 68.266667-68.266667V273.066667c0-37.546667-30.72-68.266667-68.266667-68.266667z m-436.906666 18.773333c0-13.653333 8.533333-25.6 20.48-25.6h63.146666c0-3.413333-1.706667-6.826667-1.706666-10.24 0-44.373333 35.84-80.213333 80.213333-80.213333s80.213333 35.84 80.213333 80.213333c0 3.413333 0 6.826667-1.706666 10.24h63.146666c11.946667 0 20.48 11.946667 20.48 25.6v51.2c0 13.653333-8.533333 25.6-20.48 25.6H360.106667c-11.946667 0-20.48-11.946667-20.48-25.6v-51.2zM793.6 870.4h-580.266667V256h85.333334c5.12 47.786667 44.373333 85.333333 93.866666 85.333333h221.866667c49.493333 0 88.746667-37.546667 93.866667-85.333333h85.333333v614.4z m-199.68-160.426667l-10.24 32.426667 42.666667 32.426667 27.306666 20.48 102.4-136.533334-27.306666-20.48-83.626667 110.933334-51.2-39.253334z" fill="" p-id="8821"></path></svg>