<?xml version="1.0" standalone="no"?><!DOCTYPE svg PUBLIC "-//W3C//DTD SVG 1.1//EN" "http://www.w3.org/Graphics/SVG/1.1/DTD/svg11.dtd"><svg t="1605798648568" class="icon" viewBox="0 0 1024 1024" version="1.1" xmlns="http://www.w3.org/2000/svg" p-id="2979" xmlns:xlink="http://www.w3.org/1999/xlink" width="200" height="200"><defs><style type="text/css"></style></defs><path d="M673.17 596.43l194.957 227.502a77.672 77.672 0 0 1-58.979 128.211H550.836V719.126h-77.672v233.017H214.852a77.672 77.672 0 0 1-58.98-128.211l194.984-227.476A309.24 309.24 0 0 0 512 641.454c59.03 0 114.178-16.44 161.17-45.024zM512 71.857c142.995 0 258.908 115.913 258.908 258.908S654.995 589.672 512 589.672 253.092 473.76 253.092 330.765 369.005 71.857 512 71.857z" p-id="2980"></path></svg>