<?xml version="1.0" standalone="no"?><!DOCTYPE svg PUBLIC "-//W3C//DTD SVG 1.1//EN" "http://www.w3.org/Graphics/SVG/1.1/DTD/svg11.dtd"><svg t="1605798468898" class="icon" viewBox="0 0 1024 1024" version="1.1" xmlns="http://www.w3.org/2000/svg" p-id="2716" xmlns:xlink="http://www.w3.org/1999/xlink" width="200" height="200"><defs><style type="text/css"></style></defs><path d="M631.712 123.639c129.98 0 235.372 105.367 235.372 235.37 0 82.528-42.477 155.103-106.727 197.143l191.996 224.012A72.818 72.818 0 0 1 897.06 900.36l-115.925 0.025c12.767-22.088 16.262-48.351 9.951-72.818l105.974-0.024-245.978-286.975 69.395-45.366a162.554 162.554 0 0 0-85.997-298.722 285.883 285.883 0 0 0-63.06-65.051 235.493 235.493 0 0 1 60.292-7.791z m-69.59 469.626l160.2 186.899a72.818 72.818 0 0 1-55.341 120.197H136.333A72.818 72.818 0 0 1 81.04 780.164l160.2-186.9a282.606 282.606 0 0 0 160.441 49.662c59.54 0 114.81-18.325 160.442-49.661z m-160.44-469.626c129.979 0 235.37 105.367 235.37 235.37 0 129.98-105.391 235.372-235.37 235.372-130.005 0-235.372-105.391-235.372-235.371 0-130.004 105.367-235.371 235.371-235.371z" p-id="2717"></path></svg>