<?xml version="1.0" standalone="no"?><!DOCTYPE svg PUBLIC "-//W3C//DTD SVG 1.1//EN" "http://www.w3.org/Graphics/SVG/1.1/DTD/svg11.dtd"><svg t="1609335047315" class="icon" viewBox="0 0 1024 1024" version="1.1" xmlns="http://www.w3.org/2000/svg" p-id="4888" xmlns:xlink="http://www.w3.org/1999/xlink" width="200" height="200"><defs><style type="text/css"></style></defs><path d="M85.25 361.59l400.56 206.9a44.1 44.1 0 0 0 52.53-0.09l401.7-211a32 32 0 0 0 7.75-5.7 44.05 44.05 0 0 0 0-62.22 32 32 0 0 0-7.78-5.72L539.39 73.86a44.1 44.1 0 0 0-52.73 0.09l-401.77 214a32 32 0 0 0-7.58 5.62 44 44 0 0 0 0 62.23 32 32 0 0 0 7.94 5.79z m427.89-229.23l359.32 188.27L512 510 152.65 324.37zM946.73 668.33L512.62 896.76l-437.43-226c-10.31 12.45-18.76 55.47 3.76 71.11l416.76 215.58c6.83 4.47 25.52 4.46 32.47 0.33l418.16-219.33c25.66-13.35 13.99-60.77 0.39-70.12z" p-id="4889"></path><path d="M946.73 476L512.62 704.41l-437.43-226c-10.31 12.45-18.76 55.47 3.76 71.11L495.71 765.1c6.83 4.47 25.52 4.46 32.47 0.33L946.34 546.1c25.66-13.35 13.99-60.77 0.39-70.1z" p-id="4890"></path></svg>