<?xml version="1.0" standalone="no"?><!DOCTYPE svg PUBLIC "-//W3C//DTD SVG 1.1//EN" "http://www.w3.org/Graphics/SVG/1.1/DTD/svg11.dtd"><svg t="1609335090158" class="icon" viewBox="0 0 1024 1024" version="1.1" xmlns="http://www.w3.org/2000/svg" p-id="5163" xmlns:xlink="http://www.w3.org/1999/xlink" width="200" height="200"><defs><style type="text/css"></style></defs><path d="M391.168 558.08h-184.32c-61.44 0-112.64 51.2-112.64 112.64v152.576c0 62.464 50.176 112.64 112.64 112.64h184.32c61.44 0 112.64-51.2 112.64-112.64V670.72c0-62.464-50.176-112.64-112.64-112.64z m71.68 265.216c0 38.912-32.768 71.68-71.68 71.68h-184.32c-39.936 0-71.68-31.744-71.68-71.68V670.72c0-38.912 32.768-71.68 71.68-71.68h184.32c39.936 0 71.68 31.744 71.68 71.68v152.576zM794.624 465.92c62.464 0 112.64-50.176 112.64-112.64V200.704c0-61.44-51.2-112.64-112.64-112.64h-184.32c-62.464 0-112.64 50.176-112.64 112.64v152.576c0 62.464 50.176 112.64 112.64 112.64h184.32z m-256-112.64V200.704c0-39.936 31.744-71.68 71.68-71.68h184.32c38.912 0 71.68 32.768 71.68 71.68v152.576c0 39.936-31.744 71.68-71.68 71.68h-184.32c-39.936 0-71.68-31.744-71.68-71.68zM950.272 686.08L828.416 542.72 706.56 686.08h109.568c-8.192 103.424-94.208 184.32-197.632 184.32H604.16v40.96h14.336c124.928 0 229.376-98.304 238.592-223.232l-34.816-2.048h128zM195.584 479.232L317.44 336.896H209.92c8.192-101.376 94.208-180.224 196.608-180.224h14.336v-40.96h-14.336c-123.904 0-228.352 97.28-237.568 221.184h6.144-101.376l121.856 142.336z" p-id="5164"></path></svg>