<?xml version="1.0" standalone="no"?><!DOCTYPE svg PUBLIC "-//W3C//DTD SVG 1.1//EN" "http://www.w3.org/Graphics/SVG/1.1/DTD/svg11.dtd"><svg t="1609335245018" class="icon" viewBox="0 0 1024 1024" version="1.1" xmlns="http://www.w3.org/2000/svg" p-id="8539" xmlns:xlink="http://www.w3.org/1999/xlink" width="200" height="200"><defs><style type="text/css"></style></defs><path d="M347.296 532.448c-9.408 0-19.68-7.904-19.68-15.552v-4.736c0-5.952 2.688-14.816 19.68-14.816h91.264c9.408 0 18.784 7.168 18.784 14.816v4.736c0 7.648-9.408 15.552-18.784 15.552h-91.264z m0 0M347.296 327.008c-16.992 0-19.552-9.344-19.552-15.2 0-12.768 10.144-20.064 19.552-20.064h257.408c9.408 0 19.84 7.648 19.84 15.328v4.736c0 7.648-10.304 15.072-19.84 15.072h-257.408v0.128z m0 0M347.296 430.336c-9.408 0-19.68-8.256-19.68-15.936v-4.736c0-7.648 10.144-15.68 19.68-15.68h195.232c9.408 0 19.232 8.032 19.232 15.68v4c-5.952 8.992-10.432 16.768-25.216 16.768h-189.248v-0.096z m0 0" p-id="8540"></path><path d="M793.216 397.28c-9.472 0-19.456-4.128-19.456-19.072V239.456a42.24 42.24 0 0 0-42.656-42.56H300.48c-23.84 0-42.176 18.72-42.176 42.56v539.168c0 23.84 18.24 43.168 42.176 43.168h280.832c9.472 0 19.072 9.984 19.072 19.456s-9.472 19.456-19.072 19.456H300.48c-47.648 0-81.088-39.136-81.088-82.048V239.456c0-42.912 38.048-81.44 81.088-81.44h430.72a81.152 81.152 0 0 1 81.568 81.44v138.72c-0.096 12.16-5.216 19.104-19.552 19.104z" p-id="8541"></path><path d="M660.64 311.2a21.504 21.504 0 1 0 43.008 0 21.504 21.504 0 0 0-43.008 0z m0 0" p-id="8542"></path><path d="M690.432 605.536l-61.216-12.992a10.24 10.24 0 0 0-7.84 1.472 10.4 10.4 0 0 0 3.552 18.944l32.544 6.912-92.192 72.736-77.408-64.8a12.736 12.736 0 0 0-16.96-1.152l-117.312 92.576a12.704 12.704 0 0 0-2.112 17.792c4.352 5.504 12.352 6.4 17.792 2.112l109.216-86.112 76.448 64.032a12.992 12.992 0 0 0 8.768 2.944 12.512 12.512 0 0 0 10.816-2.368l97.888-77.216-7.296 34.432a10.24 10.24 0 0 0 1.472 7.84 10.56 10.56 0 0 0 6.592 4.512 10.368 10.368 0 0 0 12.32-8.064l12.992-61.216a10.464 10.464 0 0 0-8.064-12.384z m0 0" p-id="8543"></path></svg>