<?xml version="1.0" standalone="no"?><!DOCTYPE svg PUBLIC "-//W3C//DTD SVG 1.1//EN" "http://www.w3.org/Graphics/SVG/1.1/DTD/svg11.dtd"><svg t="1609335251859" class="icon" viewBox="0 0 1024 1024" version="1.1" xmlns="http://www.w3.org/2000/svg" p-id="8679" xmlns:xlink="http://www.w3.org/1999/xlink" width="200" height="200"><defs><style type="text/css"></style></defs><path d="M326.9632 654.87872l221.4912 83.4048a20.80256 20.80256 0 0 1 12.12928 26.78784 20.76672 20.76672 0 0 1-26.75712 12.14464l-221.4912-83.4048a20.80256 20.80256 0 0 1-12.1344-26.78784 20.76672 20.76672 0 0 1 26.75712-12.14464z m24.5248-163.13856l223.82592 79.60576a20.80256 20.80256 0 0 1 12.6208 26.56256 20.76672 20.76672 0 0 1-26.53184 12.63104l-223.82592-79.60576a20.80256 20.80256 0 0 1-12.6208-26.55744 20.76672 20.76672 0 0 1 26.53184-12.63616z m-259.50208 296.38656c-18.74944-28.89728-10.5472-67.5328 18.31424-86.30784 70.63552-45.93664 104.55552-95.21152 104.55552-148.19328V347.20256c0-6.528 1.024-13.01504 3.03616-19.2256 10.60352-32.77824 45.7472-50.74432 78.4896-40.12544l442.22464 143.40608c22.51776 7.30112 17.26976 40.58112-6.4 40.58112-19.36384 0-31.54432 11.12576-31.54432 30.16192v227.70688c0 96.76288-43.36128 173.1584-128.54272 227.0208a103.76192 103.76192 0 0 1-96.4096 7.64928l-356.02944-152.89856a62.336 62.336 0 0 1-27.6992-23.3472zM675.77856 454.6048L283.57632 327.424a20.76672 20.76672 0 0 0-27.17184 19.78368v206.42304c0 69.00224-42.0864 130.1504-123.47392 183.07584a20.8128 20.8128 0 0 0 3.1232 36.5568l356.03456 152.89344a62.2592 62.2592 0 0 0 57.84576-4.58752c73.29792-46.34624 109.17888-109.57312 109.17888-191.85664V502.00064c0-18.97472 6.17984-35.2 16.6656-47.40096z m56.42752 17.23904l-6.54848-1.05984L507.1872 398.1312a20.79232 20.79232 0 0 1-14.2336-19.7376V113.6128c0-5.51936 0.73728-11.008 2.176-16.33792 9.0112-33.2544 43.24864-52.89984 76.46208-43.8784l324.48512 88.13568A62.37696 62.37696 0 0 1 942.08 201.73824v456.41728c0 54.54336-36.93568 96.93184-90.59328 96.93184-54.3488 0-92.4672-48.6912-92.4672-108.20096V510.3104c0-24.71936-11.20768-38.47168-26.81344-38.47168z m68.36224 38.47168v136.576c0 38.4512 22.0416 66.60608 50.9184 66.60608 29.35808 0 49.0496-22.59968 49.0496-55.33696V201.73824a20.79232 20.79232 0 0 0-15.3344-20.0704l-324.48512-88.13568a20.77184 20.77184 0 0 0-26.2144 20.0704v249.78944L735.8464 430.336c38.64064 1.96608 64.72704 35.32288 64.72704 79.9744z" p-id="8680"></path></svg>