<?xml version="1.0" standalone="no"?><!DOCTYPE svg PUBLIC "-//W3C//DTD SVG 1.1//EN" "http://www.w3.org/Graphics/SVG/1.1/DTD/svg11.dtd"><svg t="1609335336650" class="icon" viewBox="0 0 1104 1024" version="1.1" xmlns="http://www.w3.org/2000/svg" p-id="10547" xmlns:xlink="http://www.w3.org/1999/xlink" width="215.625" height="200"><defs><style type="text/css"></style></defs><path d="M 1010.34 807.281 L 627.513 109.219 C 613.425 83.5417 591.63 68.8317 567.702 68.8317 c -23.9186 0 -45.7433 14.709 -59.8221 40.3659 L 352.372 392.085 H 176.515 a 65.2502 65.2502 0 0 0 -65.0571 65.0571 v 390.342 a 65.2502 65.2502 0 0 0 65.0571 65.0571 h 390.342 a 64.7216 64.7216 0 0 0 6.75983 -0.35578 a 31.6747 31.6747 0 0 0 4.42185 0.304955 h 370.013 c 28.8386 0 52.4422 -11.9238 64.7521 -32.7115 s 11.4053 -47.2072 -2.45998 -72.498 Z M 176.627 457.142 h 390.119 l 0.111818 0.111818 v 99.5062 H 176.515 v -99.5062 a 1.15883 1.15883 0 0 1 0.111817 -0.111818 Z m -0.111817 164.676 h 390.342 v 65.0571 H 176.515 Z m 0 225.555 v -95.4413 h 390.342 v 95.4413 l -0.111818 0.111817 H 176.627 Z m 771.537 0.111817 H 631.915 v -390.342 a 65.2502 65.2502 0 0 0 -65.0571 -65.0571 H 426.578 l 138.298 -251.588 a 34.7446 34.7446 0 0 1 2.79542 -4.36086 a 35.5171 35.5171 0 0 1 2.79542 4.36086 l 382.841 698.073 a 24.4878 24.4878 0 0 1 2.96823 7.74586 a 24.5997 24.5997 0 0 1 -8.22362 1.169 Z" p-id="10548"></path></svg>