<?xml version="1.0" standalone="no"?><!DOCTYPE svg PUBLIC "-//W3C//DTD SVG 1.1//EN" "http://www.w3.org/Graphics/SVG/1.1/DTD/svg11.dtd"><svg t="1609335148358" class="icon" viewBox="0 0 1024 1024" version="1.1" xmlns="http://www.w3.org/2000/svg" p-id="6179" xmlns:xlink="http://www.w3.org/1999/xlink" width="200" height="200"><defs><style type="text/css"></style></defs><path d="M373 278l128.59 238.18L630.13 278H702L553.87 538.7h108.21V575H533.54v71.16h128.54v36.32H533.54v114h-63.91v-114H341.82v-36.31h127.81V575H341.82v-36.3H449.3L301.16 278z" p-id="6180"></path><path d="M778.53 953.29H227.94a99.93 99.93 0 0 1-99.82-99.81v-573.2a99.8 99.8 0 0 1 67.58-94.46L469.77 72a100.84 100.84 0 0 1 65.71-0.46l276 114.56a99.78 99.78 0 0 1 66.9 94.23v573.2a99.92 99.92 0 0 1-99.85 99.76z m-274.89-846.4a60.22 60.22 0 0 0-19.45 3.21L210.11 224c-25.11 8.59-41.19 31-41.19 56.28v573.2a59.09 59.09 0 0 0 59 59h550.61a59.07 59.07 0 0 0 59-59v-573.2a59 59 0 0 0-39.95-55.85c-0.41-0.14-0.83-0.3-1.23-0.47L521.06 109.63a54.81 54.81 0 0 0-17.42-2.74z" p-id="6181"></path></svg>