<?xml version="1.0" standalone="no"?><!DOCTYPE svg PUBLIC "-//W3C//DTD SVG 1.1//EN" "http://www.w3.org/Graphics/SVG/1.1/DTD/svg11.dtd"><svg t="1609335134499" class="icon" viewBox="0 0 1024 1024" version="1.1" xmlns="http://www.w3.org/2000/svg" p-id="5996" xmlns:xlink="http://www.w3.org/1999/xlink" width="200" height="200"><defs><style type="text/css"></style></defs><path d="M956.38978 589.878766c-3.87643-11.314957-14.496168-18.918329-26.453101-18.91833H806.955765V119.026669c0-30.834307-25.087238-55.908234-55.908234-55.908234H268.620411c-30.820996 0-55.908234 25.073928-55.908235 55.908234v451.933767H91.313165a27.956165 27.956165 0 0 0-26.453101 18.890685 27.950022 27.950022 0 0 0 9.309165 31.148639l418.520294 325.007823a27.970499 27.970499 0 0 0 17.143936 5.868911 28.005311 28.005311 0 0 0 17.116291-5.84229l420.104244-325.007823c9.445342-7.315661 13.212216-19.832659 9.335786-31.147615z m-446.528676 298.677588L172.883037 626.868671h67.783256c15.451453 0 27.954117-12.515974 27.954118-27.954117V119.026669h482.42712V598.914554c0 15.437119 12.502664 27.954117 27.954117 27.954117h69.121474L509.861104 888.556354z" fill="#3E3A39" p-id="5997"></path><path d="M637.101381 491.397379h0.026621c15.423809 0 27.954117-12.502664 27.954117-27.926472 0-15.451453-12.502664-27.967428-27.926472-27.981762l-68.481546-0.051194 75.770585-90.266754c9.936807-11.834067 8.408146-29.455133-3.439231-39.39194-11.847377-9.936807-29.482778-8.339546-39.365319 3.439231l-89.078023 106.121618-89.102596-106.121618c-9.854896-11.779801-27.544563-13.376038-39.36532-3.425921-11.847377 9.923497-13.376038 27.557874-3.43923 39.37863l75.719391 90.181771-72.197226-0.054265h-0.027645c-15.423809 0-27.954117 12.502664-27.954117 27.926472 0 15.451453 12.502664 27.967428 27.926472 27.981762l98.626778 0.074743-0.038907 42.476907-98.533605-0.074744h-0.027645c-15.423809 0-27.954117 12.502664-27.954117 27.926473 0 15.451453 12.502664 27.967428 27.926472 27.981762l98.536676 0.074743-0.069624 75.939527c-0.026621 15.437119 12.502664 27.967428 27.927496 27.981762h0.027645c15.423809 0 27.926472-12.502664 27.954117-27.927496l0.069625-75.951813 98.534628 0.074743h0.026621c15.423809 0 27.954117-12.502664 27.954117-27.926472 0-15.451453-12.502664-27.967428-27.926472-27.981762l-98.5377-0.074744 0.038907-42.476906 98.444527 0.073719z" fill="#3E3A39" p-id="5998"></path></svg>